<svg width="210" height="45" viewBox="0 0 210 45" fill="none" xmlns="http://www.w3.org/2000/svg">
<path d="M37.99 22.44C37.99 20.36 38.44 18.51 39.34 16.89C40.24 15.25 41.49 13.98 43.09 13.08C44.71 12.16 46.54 11.7 48.58 11.7C51.08 11.7 53.22 12.36 55 13.68C56.78 15 57.97 16.8 58.57 19.08H52.93C52.51 18.2 51.91 17.53 51.13 17.07C50.37 16.61 49.5 16.38 48.52 16.38C46.94 16.38 45.66 16.93 44.68 18.03C43.7 19.13 43.21 20.6 43.21 22.44C43.21 24.28 43.7 25.75 44.68 26.85C45.66 27.95 46.94 28.5 48.52 28.5C49.5 28.5 50.37 28.27 51.13 27.81C51.91 27.35 52.51 26.68 52.93 25.8H58.57C57.97 28.08 56.78 29.88 55 31.2C53.22 32.5 51.08 33.15 48.58 33.15C46.54 33.15 44.71 32.7 43.09 31.8C41.49 30.88 40.24 29.61 39.34 27.99C38.44 26.37 37.99 24.52 37.99 22.44ZM69.3316 33.24C67.6916 33.24 66.2116 32.89 64.8916 32.19C63.5916 31.49 62.5616 30.49 61.8016 29.19C61.0616 27.89 60.6916 26.37 60.6916 24.63C60.6916 22.91 61.0716 21.4 61.8316 20.1C62.5916 18.78 63.6316 17.77 64.9516 17.07C66.2716 16.37 67.7516 16.02 69.3916 16.02C71.0316 16.02 72.5116 16.37 73.8316 17.07C75.1516 17.77 76.1916 18.78 76.9516 20.1C77.7116 21.4 78.0916 22.91 78.0916 24.63C78.0916 26.35 77.7016 27.87 76.9216 29.19C76.1616 30.49 75.1116 31.49 73.7716 32.19C72.4516 32.89 70.9716 33.24 69.3316 33.24ZM69.3316 28.8C70.3116 28.8 71.1416 28.44 71.8216 27.72C72.5216 27 72.8716 25.97 72.8716 24.63C72.8716 23.29 72.5316 22.26 71.8516 21.54C71.1916 20.82 70.3716 20.46 69.3916 20.46C68.3916 20.46 67.5616 20.82 66.9016 21.54C66.2416 22.24 65.9116 23.27 65.9116 24.63C65.9116 25.97 66.2316 27 66.8716 27.72C67.5316 28.44 68.3516 28.8 69.3316 28.8ZM97.3431 16.26V33H92.2131V30.72C91.6931 31.46 90.9831 32.06 90.0831 32.52C89.2031 32.96 88.2231 33.18 87.1431 33.18C85.8631 33.18 84.7331 32.9 83.7531 32.34C82.7731 31.76 82.0131 30.93 81.4731 29.85C80.9331 28.77 80.6631 27.5 80.6631 26.04V16.26H85.7631V25.35C85.7631 26.47 86.0531 27.34 86.6331 27.96C87.2131 28.58 87.9931 28.89 88.9731 28.89C89.9731 28.89 90.7631 28.58 91.3431 27.96C91.9231 27.34 92.2131 26.47 92.2131 25.35V16.26H97.3431ZM106.158 19.05C106.758 18.13 107.508 17.41 108.408 16.89C109.308 16.35 110.308 16.08 111.408 16.08V21.51H109.998C108.718 21.51 107.758 21.79 107.118 22.35C106.478 22.89 106.158 23.85 106.158 25.23V33H101.028V16.26H106.158V19.05ZM120.67 33.24C119.21 33.24 117.91 32.99 116.77 32.49C115.63 31.99 114.73 31.31 114.07 30.45C113.41 29.57 113.04 28.59 112.96 27.51H118.03C118.09 28.09 118.36 28.56 118.84 28.92C119.32 29.28 119.91 29.46 120.61 29.46C121.25 29.46 121.74 29.34 122.08 29.1C122.44 28.84 122.62 28.51 122.62 28.11C122.62 27.63 122.37 27.28 121.87 27.06C121.37 26.82 120.56 26.56 119.44 26.28C118.24 26 117.24 25.71 116.44 25.41C115.64 25.09 114.95 24.6 114.37 23.94C113.79 23.26 113.5 22.35 113.5 21.21C113.5 20.25 113.76 19.38 114.28 18.6C114.82 17.8 115.6 17.17 116.62 16.71C117.66 16.25 118.89 16.02 120.31 16.02C122.41 16.02 124.06 16.54 125.26 17.58C126.48 18.62 127.18 20 127.36 21.72H122.62C122.54 21.14 122.28 20.68 121.84 20.34C121.42 20 120.86 19.83 120.16 19.83C119.56 19.83 119.1 19.95 118.78 20.19C118.46 20.41 118.3 20.72 118.3 21.12C118.3 21.6 118.55 21.96 119.05 22.2C119.57 22.44 120.37 22.68 121.45 22.92C122.69 23.24 123.7 23.56 124.48 23.88C125.26 24.18 125.94 24.68 126.52 25.38C127.12 26.06 127.43 26.98 127.45 28.14C127.45 29.12 127.17 30 126.61 30.78C126.07 31.54 125.28 32.14 124.24 32.58C123.22 33.02 122.03 33.24 120.67 33.24ZM146.369 24.36C146.369 24.84 146.339 25.34 146.279 25.86H134.669C134.749 26.9 135.079 27.7 135.659 28.26C136.259 28.8 136.989 29.07 137.849 29.07C139.129 29.07 140.019 28.53 140.519 27.45H145.979C145.699 28.55 145.189 29.54 144.449 30.42C143.729 31.3 142.819 31.99 141.719 32.49C140.619 32.99 139.389 33.24 138.029 33.24C136.389 33.24 134.929 32.89 133.649 32.19C132.369 31.49 131.369 30.49 130.649 29.19C129.929 27.89 129.569 26.37 129.569 24.63C129.569 22.89 129.919 21.37 130.619 20.07C131.339 18.77 132.339 17.77 133.619 17.07C134.899 16.37 136.369 16.02 138.029 16.02C139.649 16.02 141.089 16.36 142.349 17.04C143.609 17.72 144.589 18.69 145.289 19.95C146.009 21.21 146.369 22.68 146.369 24.36ZM141.119 23.01C141.119 22.13 140.819 21.43 140.219 20.91C139.619 20.39 138.869 20.13 137.969 20.13C137.109 20.13 136.379 20.38 135.779 20.88C135.199 21.38 134.839 22.09 134.699 23.01H141.119ZM167.315 11.94V33H162.185V24.33H154.205V33H149.075V11.94H154.205V20.19H162.185V11.94H167.315ZM187.548 16.26V33H182.418V30.72C181.898 31.46 181.188 32.06 180.288 32.52C179.408 32.96 178.428 33.18 177.348 33.18C176.068 33.18 174.938 32.9 173.958 32.34C172.978 31.76 172.218 30.93 171.678 29.85C171.138 28.77 170.868 27.5 170.868 26.04V16.26H175.968V25.35C175.968 26.47 176.258 27.34 176.838 27.96C177.418 28.58 178.198 28.89 179.178 28.89C180.178 28.89 180.968 28.58 181.548 27.96C182.128 27.34 182.418 26.47 182.418 25.35V16.26H187.548ZM196.363 18.63C196.843 17.85 197.533 17.22 198.433 16.74C199.333 16.26 200.363 16.02 201.523 16.02C202.903 16.02 204.153 16.37 205.273 17.07C206.393 17.77 207.273 18.77 207.913 20.07C208.573 21.37 208.903 22.88 208.903 24.6C208.903 26.32 208.573 27.84 207.913 29.16C207.273 30.46 206.393 31.47 205.273 32.19C204.153 32.89 202.903 33.24 201.523 33.24C200.343 33.24 199.313 33.01 198.433 32.55C197.553 32.07 196.863 31.44 196.363 30.66V33H191.233V10.8H196.363V18.63ZM203.683 24.6C203.683 23.32 203.323 22.32 202.603 21.6C201.903 20.86 201.033 20.49 199.993 20.49C198.973 20.49 198.103 20.86 197.383 21.6C196.683 22.34 196.333 23.35 196.333 24.63C196.333 25.91 196.683 26.92 197.383 27.66C198.103 28.4 198.973 28.77 199.993 28.77C201.013 28.77 201.883 28.4 202.603 27.66C203.323 26.9 203.683 25.88 203.683 24.6Z" fill="#21212F"/>
<path d="M23.2373 17.3359C18.9304 17.0298 16.4175 18.4322 15.0864 19.614C13.748 18.418 11.2138 17.0227 6.86429 17.3431C6.76462 17.3502 6.66495 17.3573 6.5724 17.3573L6.88864 14.8717C6.9131 14.6794 7.04161 14.5122 7.22163 14.4402C12.3995 12.3695 17.5245 12.3314 22.5966 14.466C22.772 14.5398 22.8964 14.7047 22.9209 14.8933L23.2373 17.3359Z" fill="#21212F"/>
<path d="M28.4193 23.7715C26.9244 21.7926 24.5467 20.5113 21.8772 20.5113C19.0582 20.5113 16.5666 21.9421 15.0861 24.1062C13.6053 21.9421 11.1138 20.5113 8.29482 20.5113C5.62532 20.5113 3.24762 21.7926 1.74567 23.7715C-0.589274 21.2445 -0.0624989 18.2617 0.400144 16.8379C0.49278 16.5461 0.877124 16.5105 1.03381 16.774C1.52495 17.6068 2.77785 18.8027 5.92425 18.8098C6.25168 18.8098 6.60049 18.7956 6.97067 18.7672C13.2922 18.2902 15.0861 21.7926 15.0861 21.7926C15.0861 21.7926 16.8799 18.2902 23.2013 18.7672C23.5715 18.7956 23.9203 18.8098 24.2406 18.8098C27.3871 18.8027 28.64 17.6068 29.1312 16.774C29.2878 16.5105 29.6722 16.5461 29.7647 16.8379C30.2274 18.2617 30.7613 21.2516 28.4193 23.7715Z" fill="#21212F"/>
<path d="M17.1716 35.4536C16.9438 36.2508 16.4312 37.1762 15.3136 37.9308C15.1783 38.0233 14.9932 38.0233 14.858 37.9308C13.7403 37.1762 13.2278 36.2508 13.0001 35.4536C13.8116 34.884 14.5235 34.165 15.0859 33.3464C15.6482 34.165 16.3601 34.884 17.1716 35.4536Z" fill="#21212F"/>
<path d="M21.8774 21.9345C18.1258 21.9345 15.0862 24.9741 15.0862 28.7257C15.0862 32.4772 18.1258 35.5168 21.8774 35.5168C25.6289 35.5168 28.6685 32.4772 28.6685 28.7257C28.6685 24.9741 25.6289 21.9345 21.8774 21.9345ZM21.8774 33.2674C19.3716 33.2674 17.3357 31.2314 17.3357 28.7257C17.3357 26.2199 19.3716 24.1839 21.8774 24.1839C24.376 24.1839 26.4191 26.2199 26.4191 28.7257C26.4191 31.2315 24.376 33.2674 21.8774 33.2674Z" fill="#21212F"/>
<path d="M29.103 12.524L27.2591 13.1362V15.699C27.2591 16.0976 26.9388 16.4109 26.5473 16.4109C26.1558 16.4109 25.8354 16.0976 25.8354 15.699V13.6061L24.1698 14.1613C23.9775 13.7129 23.6073 13.3427 23.1517 13.1505C20.468 12.0257 17.7131 11.4491 14.9581 11.4491C12.2388 11.4491 9.45532 12.0115 6.69335 13.122C6.24478 13.3 5.88885 13.6345 5.67535 14.0546L1.06245 12.5241C0.599726 12.3746 0.599726 11.684 1.06245 11.5346L14.4171 7.10675C14.8513 6.96442 15.3141 6.96442 15.7483 7.10675L29.103 11.5346C29.5656 11.684 29.5656 12.3746 29.103 12.524Z" fill="#21212F"/>
<path d="M21.8772 25.6086C20.1544 25.6086 18.7592 27.0038 18.7592 28.7265C18.7592 30.4422 20.1544 31.8445 21.8772 31.8445C23.5928 31.8445 24.9952 30.4422 24.9952 28.7265C24.9952 27.0038 23.5928 25.6086 21.8772 25.6086ZM20.9669 28.7311C20.5648 28.7311 20.2374 28.4039 20.2374 28.0018C20.2374 27.9836 20.2381 27.9656 20.2394 27.9478C20.2672 27.5708 20.5829 27.2725 20.9669 27.2725C21.3689 27.2725 21.6962 27.5997 21.6962 28.0018C21.6962 28.3973 21.3622 28.7311 20.9669 28.7311Z" fill="#21212F"/>
<path d="M8.29557 25.6085C6.57291 25.6085 5.17767 27.0037 5.17767 28.7265C5.17767 30.4421 6.57291 31.8444 8.29557 31.8444C10.0113 31.8444 11.4136 30.4421 11.4136 28.7265C11.4136 27.0037 10.0113 25.6085 8.29557 25.6085ZM7.38523 28.7311C6.98315 28.7311 6.65589 28.4038 6.65589 28.0017C6.65589 27.9836 6.65649 27.9655 6.65789 27.9478C6.68561 27.5707 7.00131 27.2724 7.38523 27.2724C7.78739 27.2724 8.11465 27.5997 8.11465 28.0017C8.11465 28.3972 7.7807 28.7311 7.38523 28.7311Z" fill="#21212F"/>
<path d="M8.29576 21.9345C4.5442 21.9345 1.50459 24.9741 1.50459 28.7257C1.50459 32.4772 4.5442 35.5168 8.29576 35.5168C12.0473 35.5168 15.0869 32.4772 15.0869 28.7257C15.0869 24.9741 12.0473 21.9345 8.29576 21.9345ZM8.29576 33.2674C5.78997 33.2674 3.75404 31.2314 3.75404 28.7257C3.75404 26.2199 5.78997 24.1839 8.29576 24.1839C10.7944 24.1839 12.8375 26.2199 12.8375 28.7257C12.8375 31.2315 10.7944 33.2674 8.29576 33.2674Z" fill="#21212F"/>
</svg>
