<svg width="31" height="31" viewBox="0 0 31 31" fill="none" xmlns="http://www.w3.org/2000/svg">
<path d="M23.2373 10.3359C18.9304 10.0298 16.4175 11.4322 15.0864 12.614C13.748 11.418 11.2138 10.0227 6.86429 10.3431C6.76462 10.3502 6.66495 10.3573 6.5724 10.3573L6.88864 7.8717C6.9131 7.67937 7.04161 7.51218 7.22163 7.44019C12.3995 5.36946 17.5245 5.33136 22.5966 7.466C22.772 7.5398 22.8964 7.70466 22.9209 7.89333L23.2373 10.3359Z" fill="#21212F"/>
<path d="M28.4193 16.7715C26.9244 14.7926 24.5467 13.5113 21.8772 13.5113C19.0582 13.5113 16.5666 14.9421 15.0861 17.1062C13.6053 14.9421 11.1138 13.5113 8.29482 13.5113C5.62532 13.5113 3.24762 14.7926 1.74567 16.7715C-0.589274 14.2445 -0.0624989 11.2617 0.400144 9.83795C0.49278 9.54614 0.877124 9.51052 1.03381 9.77399C1.52495 10.6068 2.77785 11.8027 5.92425 11.8098C6.25168 11.8098 6.60049 11.7956 6.97067 11.7672C13.2922 11.2902 15.0861 14.7926 15.0861 14.7926C15.0861 14.7926 16.8799 11.2902 23.2013 11.7672C23.5715 11.7956 23.9203 11.8098 24.2406 11.8098C27.3871 11.8027 28.64 10.6068 29.1312 9.77399C29.2878 9.51052 29.6722 9.54614 29.7647 9.83795C30.2274 11.2617 30.7613 14.2516 28.4193 16.7715V16.7715Z" fill="#21212F"/>
<path d="M17.1716 28.4536C16.9438 29.2508 16.4312 30.1762 15.3136 30.9308C15.1783 31.0233 14.9932 31.0233 14.858 30.9308C13.7403 30.1762 13.2278 29.2508 13.0001 28.4536C13.8116 27.884 14.5235 27.165 15.0859 26.3464C15.6482 27.165 16.3601 27.884 17.1716 28.4536V28.4536Z" fill="#21212F"/>
<path d="M21.8774 14.9345C18.1258 14.9345 15.0862 17.9741 15.0862 21.7257C15.0862 25.4772 18.1258 28.5168 21.8774 28.5168C25.6289 28.5168 28.6685 25.4772 28.6685 21.7257C28.6685 17.9741 25.6289 14.9345 21.8774 14.9345ZM21.8774 26.2674C19.3716 26.2674 17.3357 24.2314 17.3357 21.7257C17.3357 19.2199 19.3716 17.1839 21.8774 17.1839C24.376 17.1839 26.4191 19.2199 26.4191 21.7257C26.4191 24.2315 24.376 26.2674 21.8774 26.2674Z" fill="#21212F"/>
<path d="M29.103 5.52405L27.2591 6.13625V8.69904C27.2591 9.09765 26.9388 9.41091 26.5473 9.41091C26.1558 9.41091 25.8354 9.09765 25.8354 8.69904V6.60611L24.1698 7.1613C23.9775 6.71291 23.6073 6.34272 23.1517 6.15051C20.468 5.0257 17.7131 4.44913 14.9581 4.44913C12.2388 4.44913 9.45532 5.01153 6.69335 6.122C6.24478 6.29997 5.88885 6.63453 5.67535 7.05459L1.06245 5.52406C0.599726 5.3746 0.599726 4.68402 1.06245 4.53455L14.4171 0.106754C14.8513 -0.0355845 15.3141 -0.0355845 15.7483 0.106754L29.103 4.53455C29.5656 4.68401 29.5656 5.37458 29.103 5.52405V5.52405Z" fill="#21212F"/>
<path d="M21.8772 18.6086C20.1544 18.6086 18.7592 20.0038 18.7592 21.7265C18.7592 23.4422 20.1544 24.8445 21.8772 24.8445C23.5928 24.8445 24.9952 23.4422 24.9952 21.7265C24.9952 20.0038 23.5928 18.6086 21.8772 18.6086V18.6086ZM20.9669 21.7311C20.5648 21.7311 20.2374 21.4039 20.2374 21.0018C20.2374 20.9836 20.2381 20.9656 20.2394 20.9478C20.2672 20.5708 20.5829 20.2725 20.9669 20.2725C21.3689 20.2725 21.6962 20.5997 21.6962 21.0018C21.6962 21.3973 21.3622 21.7311 20.9669 21.7311Z" fill="#21212F"/>
<path d="M8.29557 18.6085C6.57291 18.6085 5.17767 20.0037 5.17767 21.7265C5.17767 23.4421 6.57291 24.8444 8.29557 24.8444C10.0113 24.8444 11.4136 23.4421 11.4136 21.7265C11.4136 20.0037 10.0113 18.6085 8.29557 18.6085V18.6085ZM7.38523 21.7311C6.98315 21.7311 6.65589 21.4038 6.65589 21.0017C6.65589 20.9836 6.65649 20.9655 6.65789 20.9478C6.68561 20.5707 7.00131 20.2724 7.38523 20.2724C7.78739 20.2724 8.11465 20.5997 8.11465 21.0017C8.11465 21.3972 7.7807 21.7311 7.38523 21.7311V21.7311Z" fill="#21212F"/>
<path d="M8.29576 14.9345C4.5442 14.9345 1.50459 17.9741 1.50459 21.7257C1.50459 25.4772 4.5442 28.5168 8.29576 28.5168C12.0473 28.5168 15.0869 25.4772 15.0869 21.7257C15.0869 17.9741 12.0473 14.9345 8.29576 14.9345V14.9345ZM8.29576 26.2674C5.78997 26.2674 3.75404 24.2314 3.75404 21.7257C3.75404 19.2199 5.78997 17.1839 8.29576 17.1839C10.7944 17.1839 12.8375 19.2199 12.8375 21.7257C12.8375 24.2315 10.7944 26.2674 8.29576 26.2674Z" fill="#21212F"/>
</svg>
