<svg width="205" height="32" viewBox="0 0 205 32" fill="none" xmlns="http://www.w3.org/2000/svg">
<path d="M43.2575 16.144C43.2575 14.2027 43.6775 12.476 44.5175 10.964C45.3575 9.43333 46.5242 8.248 48.0175 7.408C49.5295 6.54933 51.2375 6.12 53.1415 6.12C55.4748 6.12 57.4722 6.736 59.1335 7.968C60.7948 9.2 61.9055 10.88 62.4655 13.008H57.2015C56.8095 12.1867 56.2495 11.5613 55.5215 11.132C54.8122 10.7027 54.0002 10.488 53.0855 10.488C51.6108 10.488 50.4162 11.0013 49.5015 12.028C48.5868 13.0547 48.1295 14.4267 48.1295 16.144C48.1295 17.8613 48.5868 19.2333 49.5015 20.26C50.4162 21.2867 51.6108 21.8 53.0855 21.8C54.0002 21.8 54.8122 21.5853 55.5215 21.156C56.2495 20.7267 56.8095 20.1013 57.2015 19.28H62.4655C61.9055 21.408 60.7948 23.088 59.1335 24.32C57.4722 25.5333 55.4748 26.14 53.1415 26.14C51.2375 26.14 49.5295 25.72 48.0175 24.88C46.5242 24.0213 45.3575 22.836 44.5175 21.324C43.6775 19.812 43.2575 18.0853 43.2575 16.144ZM72.5656 26.224C71.035 26.224 69.6536 25.8973 68.4216 25.244C67.2083 24.5907 66.247 23.6573 65.5376 22.444C64.847 21.2307 64.5016 19.812 64.5016 18.188C64.5016 16.5827 64.8563 15.1733 65.5656 13.96C66.275 12.728 67.2456 11.7853 68.4776 11.132C69.7096 10.4787 71.091 10.152 72.6216 10.152C74.1523 10.152 75.5336 10.4787 76.7656 11.132C77.9976 11.7853 78.9683 12.728 79.6776 13.96C80.387 15.1733 80.7416 16.5827 80.7416 18.188C80.7416 19.7933 80.3776 21.212 79.6496 22.444C78.9403 23.6573 77.9603 24.5907 76.7096 25.244C75.4776 25.8973 74.0963 26.224 72.5656 26.224ZM72.5656 22.08C73.4803 22.08 74.255 21.744 74.8896 21.072C75.543 20.4 75.8696 19.4387 75.8696 18.188C75.8696 16.9373 75.5523 15.976 74.9176 15.304C74.3016 14.632 73.5363 14.296 72.6216 14.296C71.6883 14.296 70.9136 14.632 70.2976 15.304C69.6816 15.9573 69.3736 16.9187 69.3736 18.188C69.3736 19.4387 69.6723 20.4 70.2696 21.072C70.8856 21.744 71.651 22.08 72.5656 22.08ZM98.7657 10.376V26H93.9777V23.872C93.4924 24.5627 92.8297 25.1227 91.9897 25.552C91.1684 25.9627 90.2537 26.168 89.2457 26.168C88.0511 26.168 86.9964 25.9067 86.0817 25.384C85.1671 24.8427 84.4577 24.068 83.9537 23.06C83.4497 22.052 83.1977 20.8667 83.1977 19.504V10.376H87.9577V18.86C87.9577 19.9053 88.2284 20.7173 88.7697 21.296C89.3111 21.8747 90.0391 22.164 90.9537 22.164C91.8871 22.164 92.6244 21.8747 93.1657 21.296C93.7071 20.7173 93.9777 19.9053 93.9777 18.86V10.376H98.7657ZM107.049 12.98C107.609 12.1213 108.309 11.4493 109.149 10.964C109.989 10.46 110.922 10.208 111.949 10.208V15.276H110.633C109.438 15.276 108.542 15.5373 107.945 16.06C107.348 16.564 107.049 17.46 107.049 18.748V26H102.261V10.376H107.049V12.98ZM120.649 26.224C119.287 26.224 118.073 25.9907 117.009 25.524C115.945 25.0573 115.105 24.4227 114.489 23.62C113.873 22.7987 113.528 21.884 113.453 20.876H118.185C118.241 21.4173 118.493 21.856 118.941 22.192C119.389 22.528 119.94 22.696 120.593 22.696C121.191 22.696 121.648 22.584 121.965 22.36C122.301 22.1173 122.469 21.8093 122.469 21.436C122.469 20.988 122.236 20.6613 121.769 20.456C121.303 20.232 120.547 19.9893 119.501 19.728C118.381 19.4667 117.448 19.196 116.701 18.916C115.955 18.6173 115.311 18.16 114.769 17.544C114.228 16.9093 113.957 16.06 113.957 14.996C113.957 14.1 114.2 13.288 114.685 12.56C115.189 11.8133 115.917 11.2253 116.869 10.796C117.84 10.3667 118.988 10.152 120.313 10.152C122.273 10.152 123.813 10.6373 124.933 11.608C126.072 12.5787 126.725 13.8667 126.893 15.472H122.469C122.395 14.9307 122.152 14.5013 121.741 14.184C121.349 13.8667 120.827 13.708 120.173 13.708C119.613 13.708 119.184 13.82 118.885 14.044C118.587 14.2493 118.437 14.5387 118.437 14.912C118.437 15.36 118.671 15.696 119.137 15.92C119.623 16.144 120.369 16.368 121.377 16.592C122.535 16.8907 123.477 17.1893 124.205 17.488C124.933 17.768 125.568 18.2347 126.109 18.888C126.669 19.5227 126.959 20.3813 126.977 21.464C126.977 22.3787 126.716 23.2 126.193 23.928C125.689 24.6373 124.952 25.1973 123.981 25.608C123.029 26.0187 121.919 26.224 120.649 26.224ZM144.691 17.936C144.691 18.384 144.663 18.8507 144.607 19.336H133.771C133.845 20.3067 134.153 21.0533 134.695 21.576C135.255 22.08 135.936 22.332 136.739 22.332C137.933 22.332 138.764 21.828 139.231 20.82H144.327C144.065 21.8467 143.589 22.7707 142.899 23.592C142.227 24.4133 141.377 25.0573 140.351 25.524C139.324 25.9907 138.176 26.224 136.907 26.224C135.376 26.224 134.013 25.8973 132.819 25.244C131.624 24.5907 130.691 23.6573 130.019 22.444C129.347 21.2307 129.011 19.812 129.011 18.188C129.011 16.564 129.337 15.1453 129.991 13.932C130.663 12.7187 131.596 11.7853 132.791 11.132C133.985 10.4787 135.357 10.152 136.907 10.152C138.419 10.152 139.763 10.4693 140.939 11.104C142.115 11.7387 143.029 12.644 143.683 13.82C144.355 14.996 144.691 16.368 144.691 17.936ZM139.791 16.676C139.791 15.8547 139.511 15.2013 138.951 14.716C138.391 14.2307 137.691 13.988 136.851 13.988C136.048 13.988 135.367 14.2213 134.807 14.688C134.265 15.1547 133.929 15.8173 133.799 16.676H139.791Z" fill="#FFA337"/>
<path d="M164.297 6.344V26H159.509V17.908H152.061V26H147.273V6.344H152.061V14.044H159.509V6.344H164.297ZM183.237 10.376V26H178.449V23.872C177.964 24.5627 177.301 25.1227 176.461 25.552C175.64 25.9627 174.725 26.168 173.717 26.168C172.522 26.168 171.468 25.9067 170.553 25.384C169.638 24.8427 168.929 24.068 168.425 23.06C167.921 22.052 167.669 20.8667 167.669 19.504V10.376H172.429V18.86C172.429 19.9053 172.7 20.7173 173.241 21.296C173.782 21.8747 174.51 22.164 175.425 22.164C176.358 22.164 177.096 21.8747 177.637 21.296C178.178 20.7173 178.449 19.9053 178.449 18.86V10.376H183.237ZM191.52 12.588C191.968 11.86 192.612 11.272 193.452 10.824C194.292 10.376 195.254 10.152 196.336 10.152C197.624 10.152 198.791 10.4787 199.836 11.132C200.882 11.7853 201.703 12.7187 202.3 13.932C202.916 15.1453 203.224 16.5547 203.224 18.16C203.224 19.7653 202.916 21.184 202.3 22.416C201.703 23.6293 200.882 24.572 199.836 25.244C198.791 25.8973 197.624 26.224 196.336 26.224C195.235 26.224 194.274 26.0093 193.452 25.58C192.631 25.132 191.987 24.544 191.52 23.816V26H186.732V5.28H191.52V12.588ZM198.352 18.16C198.352 16.9653 198.016 16.032 197.344 15.36C196.691 14.6693 195.879 14.324 194.908 14.324C193.956 14.324 193.144 14.6693 192.472 15.36C191.819 16.0507 191.492 16.9933 191.492 18.188C191.492 19.3827 191.819 20.3253 192.472 21.016C193.144 21.7067 193.956 22.052 194.908 22.052C195.86 22.052 196.672 21.7067 197.344 21.016C198.016 20.3067 198.352 19.3547 198.352 18.16Z" fill="white"/>
<path d="M23.237 10.3359C18.9302 10.0298 16.4173 11.4321 15.0862 12.6139C13.7478 11.418 11.2136 10.0227 6.86415 10.3431C6.76448 10.3502 6.66481 10.3573 6.57227 10.3573L6.8885 7.87171C6.91296 7.67938 7.04147 7.51219 7.22149 7.4402C12.3993 5.36948 17.5243 5.33138 22.5964 7.46601C22.7717 7.53981 22.8962 7.70467 22.9206 7.89334L23.237 10.3359Z" fill="#FFA337"/>
<path d="M28.4191 16.7714C26.9242 14.7925 24.5466 13.5112 21.8771 13.5112C19.058 13.5112 16.5665 14.942 15.0859 17.1061C13.6052 14.942 11.1137 13.5112 8.29473 13.5112C5.62524 13.5112 3.24755 14.7925 1.74562 16.7714C-0.589317 14.2444 -0.0625443 11.2616 0.400096 9.83788C0.492731 9.54608 0.877073 9.51045 1.03375 9.77393C1.5249 10.6068 2.77779 11.8026 5.92417 11.8098C6.2516 11.8098 6.6004 11.7955 6.97059 11.7671C13.292 11.2901 15.0859 14.7925 15.0859 14.7925C15.0859 14.7925 16.8798 11.2901 23.2011 11.7671C23.5713 11.7955 23.9201 11.8098 24.2404 11.8098C27.3869 11.8026 28.6398 10.6068 29.131 9.77393C29.2876 9.51045 29.672 9.54608 29.7645 9.83788C30.2272 11.2616 30.7611 14.2515 28.4191 16.7714V16.7714Z" fill="#FFA337"/>
<path d="M17.1715 28.4534C16.9437 29.2506 16.4311 30.176 15.3136 30.9306C15.1783 31.0231 14.9932 31.0231 14.858 30.9306C13.7403 30.176 13.2278 29.2506 13 28.4534C13.8115 27.8838 14.5234 27.1648 15.0858 26.3462C15.6481 27.1649 16.36 27.8838 17.1715 28.4534V28.4534Z" fill="#FFA337"/>
<path d="M21.8772 14.9344C18.1256 14.9344 15.0861 17.974 15.0861 21.7256C15.0861 25.4771 18.1256 28.5167 21.8772 28.5167C25.6287 28.5167 28.6683 25.4771 28.6683 21.7256C28.6683 17.974 25.6287 14.9344 21.8772 14.9344ZM21.8772 26.2673C19.3714 26.2673 17.3355 24.2313 17.3355 21.7256C17.3355 19.2198 19.3714 17.1839 21.8772 17.1839C24.3758 17.1839 26.4189 19.2198 26.4189 21.7256C26.4189 24.2314 24.3758 26.2673 21.8772 26.2673Z" fill="#FFA337"/>
<path d="M29.1027 5.52401L27.2589 6.13621V8.69899C27.2589 9.09759 26.9386 9.41086 26.547 9.41086C26.1556 9.41086 25.8352 9.09759 25.8352 8.69899V6.60607L24.1695 7.16126C23.9773 6.71287 23.6071 6.34269 23.1514 6.15047C20.4678 5.02567 17.7129 4.4491 14.958 4.4491C12.2387 4.4491 9.45519 5.0115 6.69324 6.12197C6.24467 6.29993 5.88874 6.63449 5.67524 7.05455L1.06238 5.52403C0.599651 5.37457 0.599651 4.68399 1.06238 4.53452L14.4169 0.106753C14.8512 -0.0355843 15.3139 -0.0355843 15.7481 0.106753L29.1027 4.53452C29.5654 4.68398 29.5654 5.37455 29.1027 5.52401V5.52401Z" fill="#FFA337"/>
<path d="M21.877 18.6084C20.1543 18.6084 18.759 20.0036 18.759 21.7264C18.759 23.442 20.1543 24.8443 21.877 24.8443C23.5926 24.8443 24.995 23.442 24.995 21.7264C24.995 20.0036 23.5926 18.6084 21.877 18.6084V18.6084ZM20.9667 21.731C20.5646 21.731 20.2372 21.4037 20.2372 21.0016C20.2372 20.9835 20.2379 20.9654 20.2392 20.9477C20.267 20.5706 20.5827 20.2723 20.9667 20.2723C21.3687 20.2723 21.696 20.5996 21.696 21.0016C21.696 21.3971 21.362 21.731 20.9667 21.731Z" fill="#FFA337"/>
<path d="M8.29549 18.6083C6.57284 18.6083 5.17761 20.0036 5.17761 21.7263C5.17761 23.4419 6.57284 24.8443 8.29549 24.8443C10.0112 24.8443 11.4135 23.4419 11.4135 21.7263C11.4135 20.0036 10.0112 18.6083 8.29549 18.6083V18.6083ZM7.38515 21.7309C6.98308 21.7309 6.65582 21.4037 6.65582 21.0016C6.65582 20.9834 6.65642 20.9653 6.65782 20.9476C6.68554 20.5706 7.00124 20.2722 7.38515 20.2722C7.78731 20.2722 8.11457 20.5995 8.11457 21.0016C8.11457 21.397 7.78062 21.7309 7.38515 21.7309V21.7309Z" fill="#FFA337"/>
<path d="M8.29576 14.9344C4.54423 14.9344 1.50464 17.974 1.50464 21.7256C1.50464 25.4771 4.54423 28.5167 8.29576 28.5167C12.0473 28.5167 15.0869 25.4771 15.0869 21.7256C15.0869 17.974 12.0473 14.9344 8.29576 14.9344V14.9344ZM8.29576 26.2673C5.78999 26.2673 3.75407 24.2313 3.75407 21.7256C3.75407 19.2198 5.79 17.1839 8.29576 17.1839C10.7944 17.1839 12.8375 19.2198 12.8375 21.7256C12.8375 24.2314 10.7944 26.2673 8.29576 26.2673Z" fill="#FFA337"/>
</svg>
